<svg xmlns="http://www.w3.org/2000/svg" width="51" height="33" viewBox="0 0 51 33" fill="none">
<path d="M4.76464 13.7538L4.7547 13.7624L4.74522 13.7714L0.5 17.8302V1.20082L12.7865 13.3968H5.36509H5.17959L5.03898 13.5178L4.76464 13.7538Z" fill="#AC7FF4" stroke="white"/>
<rect x="8" y="20" width="43" height="13" fill="#AC7FF4"/>
<path d="M12.8381 29H10.7191V22.4545H12.9052C13.5465 22.4545 14.0973 22.5856 14.5575 22.8477C15.0178 23.1076 15.3704 23.4815 15.6154 23.9695C15.8626 24.4553 15.9862 25.038 15.9862 25.7177C15.9862 26.3995 15.8615 26.9854 15.6122 27.4755C15.3651 27.9656 15.0071 28.3427 14.5384 28.6069C14.0696 28.869 13.5028 29 12.8381 29ZM11.7067 28.1371H12.7837C13.2823 28.1371 13.6967 28.0433 14.027 27.8558C14.3572 27.6662 14.6044 27.3924 14.7685 27.0344C14.9325 26.6744 15.0146 26.2354 15.0146 25.7177C15.0146 25.2042 14.9325 24.7685 14.7685 24.4105C14.6065 24.0526 14.3647 23.7809 14.043 23.5955C13.7212 23.4102 13.3217 23.3175 12.8445 23.3175H11.7067V28.1371ZM19.2533 29.0991C18.7696 29.0991 18.3531 28.9957 18.0036 28.7891C17.6563 28.5803 17.3879 28.2873 17.1982 27.9102C17.0107 27.5309 16.917 27.0866 16.917 26.5774C16.917 26.0746 17.0107 25.6314 17.1982 25.2479C17.3879 24.8643 17.6521 24.565 17.9909 24.3498C18.3318 24.1346 18.7302 24.027 19.1862 24.027C19.4632 24.027 19.7316 24.0728 19.9916 24.1644C20.2515 24.256 20.4848 24.3999 20.6915 24.5959C20.8982 24.7919 21.0612 25.0465 21.1805 25.3597C21.2998 25.6708 21.3595 26.049 21.3595 26.4943V26.8331H17.4571V26.1172H20.423C20.423 25.8658 20.3719 25.6431 20.2696 25.4492C20.1673 25.2532 20.0235 25.0987 19.8382 24.9858C19.6549 24.8729 19.4397 24.8164 19.1926 24.8164C18.9241 24.8164 18.6897 24.8825 18.4894 25.0146C18.2913 25.1445 18.1379 25.315 18.0292 25.5259C17.9227 25.7347 17.8694 25.9616 17.8694 26.2067V26.766C17.8694 27.0941 17.9269 27.3732 18.042 27.6033C18.1592 27.8335 18.3222 28.0092 18.531 28.1307C18.7398 28.25 18.9838 28.3097 19.2629 28.3097C19.444 28.3097 19.6091 28.2841 19.7583 28.233C19.9074 28.1797 20.0363 28.1009 20.145 27.9964C20.2536 27.892 20.3367 27.7631 20.3943 27.6097L21.2987 27.7727C21.2263 28.0391 21.0963 28.2724 20.9088 28.4727C20.7235 28.6708 20.4901 28.8253 20.2089 28.9361C19.9298 29.0447 19.6112 29.0991 19.2533 29.0991ZM26.0984 25.2894L25.2322 25.4428C25.196 25.332 25.1385 25.2266 25.0597 25.1264C24.983 25.0263 24.8786 24.9442 24.7464 24.8803C24.6143 24.8164 24.4492 24.7844 24.2511 24.7844C23.9805 24.7844 23.7546 24.8452 23.5735 24.9666C23.3924 25.0859 23.3018 25.2404 23.3018 25.43C23.3018 25.5941 23.3626 25.7262 23.484 25.8263C23.6055 25.9265 23.8015 26.0085 24.0721 26.0724L24.8519 26.2514C25.3036 26.3558 25.6403 26.5167 25.8619 26.734C26.0835 26.9513 26.1942 27.2337 26.1942 27.581C26.1942 27.875 26.109 28.1371 25.9386 28.3672C25.7702 28.5952 25.5348 28.7741 25.2322 28.9041C24.9318 29.0341 24.5835 29.0991 24.1871 29.0991C23.6374 29.0991 23.1889 28.9819 22.8416 28.7475C22.4943 28.511 22.2813 28.1754 22.2024 27.7408L23.1261 27.6001C23.1836 27.8409 23.3018 28.0231 23.4808 28.1467C23.6598 28.2681 23.8931 28.3288 24.1808 28.3288C24.494 28.3288 24.7443 28.2638 24.9318 28.1339C25.1193 28.0018 25.2131 27.8409 25.2131 27.6513C25.2131 27.4979 25.1555 27.369 25.0405 27.2646C24.9276 27.1602 24.7539 27.0813 24.5195 27.0281L23.6886 26.8459C23.2305 26.7415 22.8917 26.5753 22.6722 26.3473C22.4549 26.1193 22.3462 25.8306 22.3462 25.4812C22.3462 25.1914 22.4272 24.9379 22.5891 24.7205C22.7511 24.5032 22.9748 24.3338 23.2603 24.2124C23.5458 24.0888 23.8729 24.027 24.2415 24.027C24.772 24.027 25.1896 24.142 25.4943 24.3722C25.799 24.6001 26.0004 24.9059 26.0984 25.2894ZM27.2449 29V24.0909H28.2006V29H27.2449ZM27.7275 23.3335C27.5613 23.3335 27.4186 23.2781 27.2993 23.1673C27.1821 23.0543 27.1235 22.9201 27.1235 22.7646C27.1235 22.6069 27.1821 22.4727 27.2993 22.3619C27.4186 22.2489 27.5613 22.1925 27.7275 22.1925C27.8937 22.1925 28.0354 22.2489 28.1526 22.3619C28.2719 22.4727 28.3316 22.6069 28.3316 22.7646C28.3316 22.9201 28.2719 23.0543 28.1526 23.1673C28.0354 23.2781 27.8937 23.3335 27.7275 23.3335ZM31.5444 30.9432C31.1545 30.9432 30.8189 30.892 30.5376 30.7898C30.2585 30.6875 30.0305 30.5522 29.8537 30.3839C29.6768 30.2156 29.5447 30.0313 29.4574 29.831L30.2788 29.4922C30.3363 29.5859 30.413 29.685 30.5089 29.7894C30.6069 29.896 30.739 29.9865 30.9052 30.0611C31.0735 30.1357 31.2898 30.1729 31.554 30.1729C31.9162 30.1729 32.2156 30.0845 32.4521 29.9077C32.6886 29.733 32.8068 29.4538 32.8068 29.0703V28.1051H32.7461C32.6886 28.2095 32.6055 28.3256 32.4968 28.4535C32.3903 28.5813 32.2433 28.6921 32.0558 28.7859C31.8683 28.8796 31.6243 28.9265 31.3239 28.9265C30.9361 28.9265 30.5866 28.8359 30.2756 28.6548C29.9666 28.4716 29.7216 28.2021 29.5405 27.8462C29.3615 27.4883 29.272 27.0483 29.272 26.5263C29.272 26.0043 29.3604 25.5568 29.5373 25.1839C29.7163 24.8111 29.9613 24.5256 30.2724 24.3274C30.5835 24.1271 30.9361 24.027 31.3303 24.027C31.6349 24.027 31.881 24.0781 32.0685 24.1804C32.256 24.2805 32.402 24.3977 32.5064 24.532C32.6129 24.6662 32.695 24.7844 32.7525 24.8867H32.8228V24.0909H33.7592V29.1087C33.7592 29.5305 33.6612 29.8768 33.4652 30.1474C33.2692 30.418 33.0039 30.6183 32.6694 30.7482C32.337 30.8782 31.962 30.9432 31.5444 30.9432ZM31.5348 28.1339C31.8097 28.1339 32.0419 28.07 32.2315 27.9421C32.4233 27.8121 32.5682 27.6268 32.6662 27.386C32.7663 27.1431 32.8164 26.8523 32.8164 26.5135C32.8164 26.1832 32.7674 25.8924 32.6694 25.641C32.5714 25.3896 32.4276 25.1935 32.2379 25.0529C32.0483 24.9102 31.8139 24.8388 31.5348 24.8388C31.2472 24.8388 31.0075 24.9134 30.8157 25.0625C30.6239 25.2095 30.479 25.4098 30.381 25.6634C30.2852 25.9169 30.2372 26.2003 30.2372 26.5135C30.2372 26.8352 30.2862 27.1175 30.3842 27.3604C30.4822 27.6033 30.6271 27.793 30.8189 27.9293C31.0128 28.0657 31.2514 28.1339 31.5348 28.1339ZM35.9964 26.0852V29H35.0408V24.0909H35.9581V24.8899H36.0188C36.1317 24.63 36.3086 24.4212 36.5494 24.2635C36.7923 24.1058 37.098 24.027 37.4666 24.027C37.8011 24.027 38.0941 24.0973 38.3455 24.2379C38.5969 24.3764 38.7919 24.5831 38.9304 24.858C39.0689 25.1328 39.1381 25.4727 39.1381 25.8775V29H38.1825V25.9925C38.1825 25.6367 38.0898 25.3587 37.9045 25.1584C37.7191 24.956 37.4645 24.8548 37.1406 24.8548C36.919 24.8548 36.7219 24.9027 36.5494 24.9986C36.3789 25.0945 36.2436 25.2351 36.1435 25.4205C36.0455 25.6037 35.9964 25.8253 35.9964 26.0852ZM42.5355 29.0991C42.0518 29.0991 41.6353 28.9957 41.2859 28.7891C40.9386 28.5803 40.6701 28.2873 40.4805 27.9102C40.293 27.5309 40.1992 27.0866 40.1992 26.5774C40.1992 26.0746 40.293 25.6314 40.4805 25.2479C40.6701 24.8643 40.9343 24.565 41.2731 24.3498C41.614 24.1346 42.0124 24.027 42.4684 24.027C42.7454 24.027 43.0138 24.0728 43.2738 24.1644C43.5337 24.256 43.767 24.3999 43.9737 24.5959C44.1804 24.7919 44.3434 25.0465 44.4627 25.3597C44.582 25.6708 44.6417 26.049 44.6417 26.4943V26.8331H40.7393V26.1172H43.7053C43.7053 25.8658 43.6541 25.6431 43.5518 25.4492C43.4496 25.2532 43.3058 25.0987 43.1204 24.9858C42.9371 24.8729 42.7219 24.8164 42.4748 24.8164C42.2063 24.8164 41.9719 24.8825 41.7717 25.0146C41.5735 25.1445 41.4201 25.315 41.3114 25.5259C41.2049 25.7347 41.1516 25.9616 41.1516 26.2067V26.766C41.1516 27.0941 41.2092 27.3732 41.3242 27.6033C41.4414 27.8335 41.6044 28.0092 41.8132 28.1307C42.022 28.25 42.266 28.3097 42.5451 28.3097C42.7262 28.3097 42.8913 28.2841 43.0405 28.233C43.1896 28.1797 43.3185 28.1009 43.4272 27.9964C43.5359 27.892 43.619 27.7631 43.6765 27.6097L44.581 27.7727C44.5085 28.0391 44.3786 28.2724 44.1911 28.4727C44.0057 28.6708 43.7724 28.8253 43.4911 28.9361C43.212 29.0447 42.8935 29.0991 42.5355 29.0991ZM45.702 29V24.0909H46.6256V24.8707H46.6768C46.7662 24.6065 46.9239 24.3988 47.1498 24.2475C47.3778 24.0941 47.6356 24.0174 47.9232 24.0174C47.9829 24.0174 48.0532 24.0195 48.1341 24.0238C48.2172 24.0281 48.2822 24.0334 48.3291 24.0398V24.9538C48.2907 24.9432 48.2226 24.9315 48.1246 24.9187C48.0265 24.9038 47.9285 24.8963 47.8305 24.8963C47.6047 24.8963 47.4033 24.9442 47.2265 25.0401C47.0518 25.1339 46.9133 25.2649 46.811 25.4332C46.7087 25.5994 46.6576 25.7891 46.6576 26.0021V29H45.702Z" fill="white"/>
</svg>